# AST/ASF file generated using VICON BodyLanguage
# -----------------------------------------------
:version 1.10
:name VICON
:units
  mass 1.0
  length 0.45
  angle deg
:documentation
   .ast/.asf automatically generated from VICON data using
   VICON BodyBuilder and BodyLanguage model FoxedUp or BRILLIANT.MOD
:root
   order TX TY TZ RX RY RZ
   axis XYZ
   position 0 0 0  
   orientation 0 0 0 
:bonedata
  begin
     id 1 
     name lhipjoint
     direction 0.575328 -0.747301 0.332475 
     length 2.40933 
     axis 0 0 0  XYZ
  end
  begin
     id 2 
     name lfemur
     direction 0.34202 -0.939693 0  
     length 7.31453  
     axis 0 0 20  XYZ
    dof rx ry rz
    limits (-160.0 20.0)
           (-70.0 70.0)
           (-60.0 70.0)
  end
  begin
     id 3 
     name ltibia
     direction 0.34202 -0.939693 0   
     length 7.82185   
     axis 0 0 20   XYZ
    dof rx
    limits (-10.0 170.0)
  end
  begin
     id 4 
     name lfoot
     direction 0.0795993 -0.218697 0.972541   
     length 2.19173   
     axis -90 7.62852e-016 20   XYZ
    dof rx rz
    limits (-45.0 90.0)
           (-70.0 20.0)
  end
  begin
     id 5 
     name ltoes
     direction 1.53537e-011 -4.21894e-011 1   
     length 1.10023   
     axis -90 7.62852e-016 20   XYZ
    dof rx
    limits (-90.0 20.0)
  end
  begin
     id 6 
     name rhipjoint
     direction -0.513884 -0.783789 0.348708   
     length 2.29716  
     axis 0 0 0  XYZ 
  end
  begin
     id 7 
     name rfemur
     direction -0.34202 -0.939693 0   
     length 7.59573   
     axis 0 0 -20   XYZ
    dof rx ry rz
    limits (-160.0 20.0)
           (-70.0 70.0)
           (-70.0 60.0)
  end
  begin
     id 8 
     name rtibia
     direction -0.34202 -0.939693 0   
     length 7.66402   
     axis 0 0 -20   XYZ
    dof rx
    limits (-10.0 170.0)
 end
 begin
     id 9 
     name rfoot
     direction -0.137793 -0.378584 0.915253   
     length 2.27056  
     axis -90 -7.62852e-016 -20   XYZ
    dof rx rz
    limits (-45.0 90.0)
           (-20.0 70.0)
  end
  begin
     id 10 
     name rtoes
     direction -1.53493e-011 -4.22159e-011 1   
     length 1.11766   
     axis -90 -7.62852e-016 -20   XYZ
    dof rx
    limits (-90.0 20.0)
  end
  begin
     id 11 
     name lowerback
     direction -0.00732775 0.998356 -0.05685   
     length 2.16513   
     axis 0 0 0   XYZ
    dof rx ry rz
    limits (-20.0 45.0)
           (-30.0 30.0)
           (-30.0 30.0)
  end
  begin
     id 12 
     name upperback
     direction 0.0218081 0.999627 -0.0164647   
     length 2.16755   
     axis 0 0 0   XYZ
    dof rx ry rz
    limits (-20.0 45.0)
           (-30.0 30.0)
           (-30.0 30.0)
  end
  begin
     id 13 
     name thorax
     direction 0.02365 0.999661 0.0108914   
     length 2.16932   
     axis 0 0 0   XYZ
    dof rx ry rz
    limits (-20.0 45.0)
           (-30.0 30.0)
           (-30.0 30.0)
  end
  begin
     id 14 
     name lowerneck
     direction -0.0523929 0.978385 0.200044   
     length 1.63877   
     axis 0 0 0   XYZ
    dof rx ry rz
    limits (-20.0 45.0)
           (-30.0 30.0)
           (-30.0 30.0)
  end
  begin
     id 15 
     name upperneck
     direction 0.0448674 0.981321 -0.187074   
     length 1.69014   
     axis 0 0 0   XYZ
    dof rx ry rz
    limits (-20.0 45.0)
           (-30.0 30.0)
           (-30.0 30.0)
  end
  begin
     id 16
     name head
     direction 0.0199089 0.996118 -0.0857429  
     length 1.70094  
     axis 0 0 0   XYZ
    dof rx ry rz
    limits (-20.0 45.0)
           (-30.0 30.0)
           (-30.0 30.0)
  end
  begin
     id 17 
     name lclavicle
     direction 0.940366 0.30191 -0.156722  
     length 3.37521  
     axis 0 0 0   XYZ
    dof ry rz
    limits (-20.0 10.0)
           (0.0 20.0)
  end
  begin
     id 18 
     name lhumerus
     direction 1 -4.4897e-011 -1.7911e-027   
     length 5.25287   
     axis 180 -30 -90   XYZ
    dof rx ry rz
    limits (-60.0 90.0)
           (-90.0 90.0)
           (-90.0 90.0)
  end
  begin
     id 19
     name lradius
     direction 1 -4.48951e-011 1.04424e-027   
     length 3.51014   
     axis 180 -30 -90   XYZ
    dof rx
    limits (-10.0 170.0)
  end
  begin
     id 20
     name lwrist
     direction 1 -4.48997e-011 -9.5942e-028   
     length 1.75507   
     axis 8.48502e-016 90 90   XYZ
    dof ry
    limits (-180.0 0.0)
 end
  begin
     id 21 
     name lhand
     direction 1 -4.48831e-011 -1.90777e-027   
     length 0.706179   
     axis 1.22306e-015 90 90   XYZ
    dof rx rz
    limits (-90.0 90.0)
           (-45.0 45.0)
  end
  begin
     id 22 
     name lfingers
     direction 1 -4.49108e-011 -3.85244e-027   
     length 0.569339   
     axis 2.44611e-015 90 90   XYZ
    dof rx
    limits (0.0 90.0)
  end
  begin
     id 23
     name lthumb
     direction 0.707107 -6.34953e-011 0.707107   
     length 0.817461   
     axis -90 45 -1.62303e-014   XYZ
    dof rx rz
    limits (-45.0 45.0)
           (-45.0 45.0)
  end
  begin
     id 24 
     name rclavicle
     direction -0.905329 0.382405 -0.184787   
     length 3.30787  
     axis 0 0 0   XYZ 
    dof ry rz
    limits (-10.0 20.0)
           (-20.0 0.0)
  end
  begin
     id 25 
     name rhumerus
     direction -1 -4.48953e-011 -9.15316e-029  
     length 5.28721   
     axis 180 30 90   XYZ
    dof rx ry rz
    limits (-90.0 60.0)
           (-90.0 90.0)
           (-90.0 90.0)
  end
  begin
     id 26 
     name rradius
     direction -1 -4.48987e-011 9.37824e-028   
     length 3.50544   
     axis 180 30 90   XYZ
    dof rx
    limits (-10.0 170.0)
  end
  begin
     id 27 
     name rwrist
     direction -1 -4.48967e-011 -9.58414e-028   
     length 1.75272   
     axis 8.48502e-016 -90 -90   XYZ
    dof ry
    limits (-180.0 0.0)
  end
  begin
     id 28
     name rhand
     direction -1 -4.48904e-011 -1.91266e-027   
     length 0.884996   
     axis 1.22306e-015 -90 -90   XYZ
    dof rx rz
    limits (-90.0 90.0)
           (-45.0 45.0)
  end
  begin
     id 29
     name rfingers
     direction -1 -4.4909e-011 -3.85015e-027   
     length 0.713507   
     axis 2.44611e-015 -90 -90   XYZ
    dof rx
    limits (0.0 90.0)
  end
  begin
     id 30
     name rthumb
     direction -0.707107 -6.34853e-011 0.707107   
     length 1.02446   
     axis -90 -45 1.62303e-014   XYZ
    dof rx rz
    limits (-45.0 45.0)
           (-45.0 45.0)
  end
:hierarchy
  begin
    root lhipjoint rhipjoint lowerback
    lhipjoint lfemur
    lfemur ltibia
    ltibia lfoot
    lfoot ltoes
    rhipjoint rfemur
    rfemur rtibia
    rtibia rfoot
    rfoot rtoes
    lowerback upperback
    upperback thorax
    thorax lowerneck lclavicle rclavicle
    lowerneck upperneck
    upperneck head
    lclavicle lhumerus
    lhumerus lradius
    lradius lwrist
    lwrist lhand lthumb
    lhand lfingers
    rclavicle rhumerus
    rhumerus rradius
    rradius rwrist
    rwrist rhand rthumb
    rhand rfingers
  end

#!OML:ASF F:\twosubjects\two\Thursday\Session 1\justin.ASF
:FULLY-SPECIFIED
:DEGREES
17
root 19.1228 18.5301 2.94159 11.4287 -79.0284 1.80587
lowerback 4.14067 -0.162043 -2.67114
upperback 1.56268 -0.325034 2.71668
thorax -0.683835 -0.189105 4.31806
lowerneck -17.4168 -3.15692 -10.2908
upperneck 33.8921 -5.6734 9.60959
head 15.3877 -2.72315 4.78771
rclavicle 1.17283e-014 -6.36111e-015
rhumerus 31.2621 37.8082 -44.529
rradius 62.3359
rwrist 1.88316
rhand -27.6045 17.6298
rfingers 7.12502
rthumb -1.00395 -12.3476
lclavicle 1.17283e-014 -6.36111e-015
lhumerus 35.3525 -35.6242 53.6261
lradius 48.4228
lwrist -16.2252
lhand -23.9493 35.3922
lfingers 7.12502
lthumb 2.5263 65.357
rfemur -20.3442 -2.90521 25.4129
rtibia 25.7608
rfoot -16.7698 -13.4743
rtoes -8.58376
lfemur -13.02 -0.511111 -14.0761
ltibia 9.86241
lfoot -7.77147 -6.51788
ltoes -5.59536
18
root 19.1091 18.5342 2.93596 11.1352 -78.8607 2.0628
lowerback 4.1156 -0.169444 -2.75367
upperback 1.7596 -0.342022 2.74025
thorax -0.464787 -0.206903 4.38911
lowerneck -17.5838 -3.1969 -10.1212
upperneck 34.1237 -5.75367 9.46634
head 15.5389 -2.75493 4.69138
rclavicle 2.74323e-014 -3.18055e-014
rhumerus 31.2262 37.7048 -44.4732
rradius 62.8018
rwrist 1.60349
rhand -27.4879 17.835
rfingers 7.12502
rthumb -0.8913 -12.1429
lclavicle 2.74323e-014 -3.18055e-014
lhumerus 35.6303 -35.5719 53.4319
lradius 48.8109
lwrist -15.6692
lhand -23.7616 36.3679
lfingers 7.12502
lthumb 2.70759 66.3305
rfemur -20.304 -2.92519 25.3488
rtibia 25.8201
rfoot -16.9973 -13.3934
rtoes -7.13803
lfemur -13.1034 -0.691211 -14.1036
ltibia 10.0453
lfoot -8.1604 -6.36845
ltoes -10.0273
19
root 19.0984 18.5266 2.92703 10.9642 -78.9171 2.23949
lowerback 4.18746 -0.142978 -2.76745
upperback 1.79594 -0.30947 2.72392
thorax -0.4707 -0.191367 4.37893
lowerneck -17.416 -3.17068 -10.4265
upperneck 34.3389 -5.82156 9.86014
head 15.6414 -2.78828 4.91955
rclavicle -9.93923e-016 -1.59028e-015
rhumerus 31.3349 37.7814 -44.3785
rradius 63.0836
rwrist 0.909563
rhand -27.3277 18.2252
rfingers 7.12502
rthumb -0.736603 -11.7533
lclavicle -9.93923e-016 -1.59028e-015
lhumerus 35.5469 -35.4998 53.4512
lradius 49.0756
lwrist -15.1943
lhand -23.3323 36.8017
lfingers 7.12502
lthumb 3.12218 66.7586
rfemur -20.3153 -2.87832 25.3649
rtibia 25.9154
rfoot -16.9244 -13.5352
rtoes -7.69289
lfemur -13.0572 -0.660615 -14.0881
ltibia 10.0248
lfoot -7.99923 -6.51048
ltoes -7.62209
20
root 19.0902 18.5198 2.91588 10.9709 -78.8809 2.33259
lowerback 4.24352 -0.0549917 -2.51179
upperback 1.77828 -0.182875 2.54776
thorax -0.534491 -0.124082 4.04522
lowerneck -17.2607 -3.19671 -10.5641
upperneck 34.5502 -6.06686 10.3489
head 15.7722 -2.86249 5.129
rclavicle 6.16232e-015 -1.59028e-015
rhumerus 31.2574 37.4961 -44.4739
rradius 63.1975
rwrist 0.240268
rhand -27.0298 18.387
rfingers 7.12502
rthumb -0.448827 -11.5923
lclavicle 6.16232e-015 -1.59028e-015
lhumerus 35.8505 -35.8327 52.9428
lradius 49.3682
lwrist -14.4353
lhand -23.2653 36.7588
lfingers 7.12502
lthumb 3.18687 66.7147
rfemur -20.4427 -2.86461 25.442
rtibia 26.0225
rfoot -16.7631 -13.7717
rtoes -8.86264
lfemur -13.0486 -0.694934 -13.9955
ltibia 9.85609
lfoot -7.87253 -6.75564
ltoes -3.65331
21
root 19.0828 18.5248 2.90589 10.7238 -78.8433 2.58746
lowerback 4.3512 0.00385219 -2.29643
upperback 1.80244 -0.0985376 2.42488
thorax -0.578356 -0.0801494 3.7921
lowerneck -16.9391 -3.21204 -10.43
upperneck 34.5289 -6.12855 10.2232
head 15.6826 -2.89602 5.03387
rclavicle -8.94531e-015 -9.54166e-015
rhumerus 31.08 37.2418 -44.8384
rradius 63.2568
rwrist 0.0605738
rhand -26.5837 18.5604
rfingers 7.12502
rthumb -0.0179802 -11.4193
lclavicle -8.94531e-015 -9.54166e-015
lhumerus 36.0961 -35.9844 52.5946
lradius 49.5891
lwrist -13.8466
lhand -23.2565 36.6343
lfingers 7.12502
lthumb 3.19535 66.5901
rfemur -20.4446 -2.60527 25.3376
rtibia 26.049
rfoot -16.9286 -13.7394
rtoes -7.05715
lfemur -13.0876 -0.762422 -14.0037
ltibia 9.91035
lfoot -8.11374 -6.62921
ltoes -5.46706
22
root 19.0733 18.5269 2.8939 10.2462 -78.8856 2.93609
lowerback 4.55364 -0.0390572 -2.39211
upperback 1.8893 -0.164975 2.42165
thorax -0.596125 -0.115565 3.84702
lowerneck -16.7566 -3.14924 -10.3962
upperneck 34.6714 -6.05706 10.1193
head 15.6908 -2.88694 5.00122
rclavicle -7.15625e-015 7.95139e-016
rhumerus 31.1796 37.3472 -45.0545
rradius 63.4722
rwrist -0.0881334
rhand -26.6864 18.1061
rfingers 7.12502
rthumb -0.117231 -11.8736
lclavicle -7.15625e-015 7.95139e-016
lhumerus 35.9612 -35.7097 52.5872
lradius 49.6897
lwrist -13.395
lhand -23.3522 36.7637
lfingers 7.12502
lthumb 3.10296 66.7209
rfemur -20.2928 -2.22313 25.1899
rtibia 26.103
rfoot -17.1832 -13.7784
rtoes -5.15094
lfemur -12.9445 -0.772709 -14.0612
ltibia 9.95059
lfoot -7.88854 -6.48468
ltoes -7.23047
